<svg width="395.97935791015624px" height="120.79997253417969px" xmlns="http://www.w3.org/2000/svg" viewBox="52.01032104492188 14.600013732910156 395.97935791015624 120.79997253417969" style="background: rgba(0, 0, 0, 0);" preserveAspectRatio="xMidYMid"><defs><filter id="editing-jagged" x="-100%" y="-100%" width="300%" height="300%"><feTurbulence result="turb" baseFrequency="0.1" numOctaves="1" seed="1"></feTurbulence><feDisplacementMap in="SourceGraphic" in2="turb" scale="10"></feDisplacementMap></filter></defs><g filter="url(#editing-jagged)"><g transform="translate(111.97488096356392, 97.46500205993652)"><path d="M0.45-0.32L0.45-0.32L8.51-42.24L8.51-42.24Q16.06-42.88 20.93-42.88L20.93-42.88L20.93-42.88Q25.79-42.88 28.93-42.46L28.93-42.46L28.93-42.46Q32.06-42.05 34.18-40.96L34.18-40.96L34.18-40.96Q38.40-38.91 38.40-33.28L38.40-33.28L38.40-33.28Q38.40-30.02 35.58-27.26L35.58-27.26L35.58-27.26Q32.96-24.77 30.08-24.19L30.08-24.19L30.08-24.19Q33.15-23.68 35.33-21.38L35.33-21.38L35.33-21.38Q37.63-18.94 37.63-15.17L37.63-15.17L37.63-15.17Q37.63-7.87 32.19-3.62L32.19-3.62L32.19-3.62Q26.75 0.64 16.06 0.64L16.06 0.64L16.06 0.64Q8.70 0.64 0.45-0.32ZM17.86-20.61L14.66-4.03L14.66-4.03Q15.23-3.97 15.36-3.97L15.36-3.97L15.94-3.97L15.94-3.97Q21.18-3.97 23.42-7.42L23.42-7.42L23.42-7.42Q25.09-10.11 25.09-15.04L25.09-15.04L25.09-15.04Q25.09-17.66 23.39-19.07L23.39-19.07L23.39-19.07Q21.70-20.48 17.86-20.61L17.86-20.61ZM27.58-33.22L27.58-33.22L27.58-33.22Q27.58-38.53 22.46-38.53L22.46-38.53L21.89-38.53L21.89-38.53Q21.63-38.53 21.25-38.46L21.25-38.46L18.69-24.96L19.33-24.96L19.33-24.96Q27.58-25.15 27.58-33.22ZM55.10 0L41.15 0L49.28-42.24L63.36-42.24L55.10 0ZM65.73-15.62L65.73-15.62L65.73-15.62Q65.73-27.71 72-35.33L72-35.33L72-35.33Q78.66-43.58 90.24-43.58L90.24-43.58L90.24-43.58Q98.62-43.58 102.85-39.52L102.85-39.52L102.85-39.52Q107.07-35.46 107.07-26.88L107.07-26.88L107.07-26.88Q107.07-13.82 100.42-6.21L100.42-6.21L100.42-6.21Q93.82 1.28 82.75 1.28L82.75 1.28L82.75 1.28Q74.11 1.28 69.92-3.04L69.92-3.04L69.92-3.04Q65.73-7.36 65.73-15.62ZM82.56-28.86L82.56-28.86L82.56-28.86Q79.68-17.34 79.68-8.26L79.68-8.26L79.68-8.26Q79.68-6.08 80.42-4.67L80.42-4.67L80.42-4.67Q81.15-3.26 83.10-3.26L83.10-3.26L83.10-3.26Q85.06-3.26 86.27-4.19L86.27-4.19L86.27-4.19Q87.49-5.12 88.45-7.23L88.45-7.23L88.45-7.23Q89.98-10.69 91.42-18.02L91.42-18.02L91.42-18.02Q92.86-25.34 92.99-28.38L92.99-28.38L92.99-28.38Q93.12-31.42 93.12-33.73L93.12-33.73L93.12-33.73Q93.12-36.03 92.42-37.50L92.42-37.50L92.42-37.50Q91.71-38.98 89.82-38.98L89.82-38.98L89.82-38.98Q87.94-38.98 86.66-37.82L86.66-37.82L86.66-37.82Q84.29-35.65 82.56-28.86ZM115.33-31.17L115.33-31.17L115.33-31.17Q113.15-32.83 113.15-36.38L113.15-36.38L113.15-36.38Q113.15-39.94 115.49-41.79L115.49-41.79L115.49-41.79Q117.82-43.65 121.86-43.65L121.86-43.65L121.86-43.65Q124.42-43.65 130.50-42.75L130.50-42.75L134.85-42.11L134.85-42.11Q137.02-41.86 139.30-41.86L139.30-41.86L139.30-41.86Q141.57-41.86 143.10-42.82L143.10-42.82L143.10-42.82Q145.41-40.77 145.41-37.82L145.41-37.82L145.41-37.82Q145.41-34.88 142.78-32.77L142.78-32.77L142.78-32.77Q140.10-30.53 136.64-30.53L136.64-30.53L136.64-30.53Q134.98-30.53 132.29-30.98L132.29-30.98L132.29-30.98Q129.15-21.12 129.15-14.27L129.15-14.27L129.15-14.27Q129.15-7.42 132.61-3.84L132.61-3.84L132.61-3.84Q131.01-0.96 128.64 0.16L128.64 0.16L128.64 0.16Q126.27 1.28 122.72 1.28L122.72 1.28L122.72 1.28Q119.17 1.28 116.96-0.67L116.96-0.67L116.96-0.67Q114.75-2.62 114.75-6.66L114.75-6.66L114.75-6.66Q114.75-11.33 117.31-19.01L117.31-19.01L117.31-19.01Q119.87-26.62 123.71-32.45L123.71-32.45L123.71-32.45Q121.86-32.64 119.94-32.64L119.94-32.64L119.94-32.64Q115.97-32.64 115.33-31.17ZM156.48 0L142.78 0L150.59-42.05L150.59-42.05Q156.93-42.75 166.18-42.75L166.18-42.75L166.18-42.75Q175.42-42.75 179.71-40.06L179.71-40.06L179.71-40.06Q184-37.38 184-31.97L184-31.97L184-31.97Q184-26.56 181.22-23.17L181.22-23.17L181.22-23.17Q178.43-19.78 173.63-18.69L173.63-18.69L173.63-18.69Q174.72-13.38 177.22-9.09L177.22-9.09L177.22-9.09Q179.52-5.06 182.21-3.78L182.21-3.78L182.21-3.78Q181.25-1.09 179.30 0.10L179.30 0.10L179.30 0.10Q177.34 1.28 174.56 1.28L174.56 1.28L174.56 1.28Q171.78 1.28 169.60-0.35L169.60-0.35L169.60-0.35Q167.42-1.98 165.70-4.99L165.70-4.99L165.70-4.99Q162.05-11.52 161.66-21.82L161.66-21.82L162.11-21.82L162.11-21.82Q166.85-21.95 169.22-24.42L169.22-24.42L169.22-24.42Q171.58-26.88 171.58-32.06L171.58-32.06L171.58-32.06Q171.58-38.53 166.14-38.78L166.14-38.78L164.74-38.78L164.74-38.78Q164.16-38.78 163.84-38.72L163.84-38.72L156.48 0ZM187.90-15.62L187.90-15.62L187.90-15.62Q187.90-27.71 194.18-35.33L194.18-35.33L194.18-35.33Q200.83-43.58 212.42-43.58L212.42-43.58L212.42-43.58Q220.80-43.58 225.02-39.52L225.02-39.52L225.02-39.52Q229.25-35.46 229.25-26.88L229.25-26.88L229.25-26.88Q229.25-13.82 222.59-6.21L222.59-6.21L222.59-6.21Q216 1.28 204.93 1.28L204.93 1.28L204.93 1.28Q196.29 1.28 192.10-3.04L192.10-3.04L192.10-3.04Q187.90-7.36 187.90-15.62ZM204.74-28.86L204.74-28.86L204.74-28.86Q201.86-17.34 201.86-8.26L201.86-8.26L201.86-8.26Q201.86-6.08 202.59-4.67L202.59-4.67L202.59-4.67Q203.33-3.26 205.28-3.26L205.28-3.26L205.28-3.26Q207.23-3.26 208.45-4.19L208.45-4.19L208.45-4.19Q209.66-5.12 210.62-7.23L210.62-7.23L210.62-7.23Q212.16-10.69 213.60-18.02L213.60-18.02L213.60-18.02Q215.04-25.34 215.17-28.38L215.17-28.38L215.17-28.38Q215.30-31.42 215.30-33.73L215.30-33.73L215.30-33.73Q215.30-36.03 214.59-37.50L214.59-37.50L214.59-37.50Q213.89-38.98 212-38.98L212-38.98L212-38.98Q210.11-38.98 208.83-37.82L208.83-37.82L208.83-37.82Q206.46-35.65 204.74-28.86ZM238.98 0L231.94 0L239.62-42.24L253.38-42.24L263.36-13.18L268.67-42.24L275.78-42.18L267.97 0L253.31 0L244.10-27.97L238.98 0Z" fill="#444"></path></g></g><style>text {
  font-size: 64px;
  font-family: Arial Black;
  dominant-baseline: central;
  text-anchor: middle;
}</style></svg>